<?xml version="1.0" encoding="utf-8"?>
<!-- Generator: Adobe Illustrator 20.1.0, SVG Export Plug-In . SVG Version: 6.00 Build 0)  -->
<svg version="1.1" id="Layer_1" xmlns="http://www.w3.org/2000/svg" xmlns:xlink="http://www.w3.org/1999/xlink" x="0px" y="0px"
	 width="629.1px" height="274.2px" viewBox="0 0 629.1 274.2" style="enable-background:new 0 0 629.1 274.2;" xml:space="preserve"
	>
<style type="text/css">
	.st0{fill:#6C7E8E;}
	.st1{fill:none;}
	.st2{fill:#FFFFFF;}
	.st3{fill:#E13C2E;}
	.st4{fill:#427581;}
	.st5{fill:#D4ECE7;}
	.st6{fill:#163339;}
	.st7{fill:#E7DBC9;}
	.st8{fill:#F7C241;}
	.st9{fill:#F6893C;}
</style>
<g>
	<path class="st0" d="M0,0c21.1,154.8,153.9,274.2,314.5,274.2S608,154.8,629.1,0H0z"/>
</g>
<g>
	<path class="st2" d="M268.2,93.1c0,3.8-0.7,6.8-2,9c-1.4,2.2-3.3,4.2-6,6c-0.7,0.4-1.6,0.9-2.8,1.5c-1.2,0.6-2.5,1.1-3.9,1.7
		c-1.4,0.5-3,0.9-4.6,1.3c-1.6,0.3-3.1,0.5-4.4,0.5c-3.8,0-6.7-0.4-8.6-1.2c-1.9-0.8-2.9-1.8-2.9-2.9c0-1.2,0.3-2.2,1-2.9
		c0.7-0.8,1.3-1.2,1.8-1.3l1.4,1c0.4,0.4,1,0.9,1.8,1.3c0.8,0.5,2,0.7,3.7,0.7c1.6,0,3.6-0.3,5.8-0.8c2.3-0.5,4.5-1.4,6.5-2.5
		c2.1-1.1,3.9-2.6,5.3-4.3c1.5-1.7,2.2-3.6,2.2-5.8c0-1.9-1.5-3.7-4.4-5.4c-2.9-1.7-7.5-2.8-13.8-3.4c-3.2-0.3-6.4-0.7-9.5-1.2
		c-3.1-0.5-5.9-1.3-8.4-2.3c-2.5-1-4.5-2.2-6-3.7c-1.5-1.5-2.3-3.3-2.3-5.5c0-2.1,0.6-4.1,1.8-6.1c1.2-1.9,2.6-3.7,4.4-5.4
		c1.7-1.7,3.5-3.1,5.4-4.4c1.9-1.3,3.4-2.3,4.7-3.2c1-0.6,2.4-1.4,4.3-2.3c1.8-1,3.8-1.9,5.8-2.8c2.1-0.9,4.1-1.7,6.2-2.3
		c2.1-0.6,3.8-1,5.3-1c1.7,0,2.8,0.5,3.4,1.4c0.6,0.9,0.9,2.2,0.9,3.9c0,1.4-0.2,3-0.5,4.6c-0.3,1.6-0.7,3.2-1.1,4.7
		c-0.4,1.5-0.8,2.9-1.2,4s-0.7,1.9-0.8,2.2c-0.3,0.8-0.7,1.3-1.1,1.5c-0.4,0.3-0.7,0.4-0.9,0.4c-0.3,0-0.5-0.2-0.5-0.6
		c0-0.3,0.1-0.7,0.2-1.5c0.1-0.7,0.3-1.6,0.5-2.6c0.2-1,0.4-2.1,0.5-3.3c0.1-1.2,0.2-2.4,0.2-3.6c0-1.9-0.1-3.2-0.3-4.1
		c-0.2-0.8-0.8-1.3-2-1.3c-1.2,0-2.8,0.3-4.8,1c-2,0.6-4.1,1.4-6.2,2.3c-2.3,1-4.5,2.3-6.7,3.9c-2.2,1.6-4.1,3.3-5.8,5
		c-1.7,1.7-3.1,3.3-4.1,4.9c-1.1,1.6-1.6,2.8-1.6,3.7c0,1,0.7,2,2.1,2.9c1.4,0.9,3.2,1.7,5.3,2.3c2.2,0.7,4.6,1.3,7.2,1.8
		c2.6,0.5,5.2,0.9,7.7,1.1c2.1,0.3,4.4,0.6,7,1c2.5,0.4,4.9,1.1,7.1,2c2.2,0.9,4.1,2.2,5.6,3.7C267.5,88.6,268.2,90.6,268.2,93.1z"
		/>
	<path class="st2" d="M312.6,117.1c0.1,0.3,0.1,0.7,0.1,1c0,0.3,0,0.5,0,0.7c0,0.8-0.2,1.4-0.6,1.8c-0.4,0.3-1.1,0.5-2.2,0.5
		c-1,0-1.7-0.2-2-0.5c-0.5-0.5-1.2-1.8-2-3.9c-0.8-2.1-1.7-4.6-2.7-7.5c-0.9-2.9-1.8-6-2.7-9.3c-0.9-3.3-1.7-6.4-2.3-9.4
		c-0.9,0.4-2.2,0.9-3.8,1.3c-1.6,0.5-3.3,0.9-5,1.3c-1.9,0.4-4,0.9-6.1,1.4c-0.8,3.6-1.3,6.8-1.7,9.3c-0.4,2.6-0.7,4.7-1,6.4
		c-0.3,1.7-0.7,2.9-1.1,3.7c-0.5,0.8-1.2,1.2-2.2,1.2c-0.7,0-1.3-0.4-1.8-1.1c-0.5-0.8-0.8-1.9-0.8-3.4c0-0.8,0.2-2.5,0.6-5.3
		c0.4-2.8,0.9-5.9,1.4-9.3c0.5-3.4,1-6.8,1.5-10.2c0.5-3.4,0.8-6.1,1-8c0.1-1,0.4-2.7,0.8-5c0.5-2.3,1-4.6,1.5-7s1-4.6,1.5-6.5
		c0.5-1.9,0.8-3,1-3.3c1.4-3.1,2.2-6.4,2.6-9.7c0.4-3.3,0.7-6.3,0.9-9.1c0.2-2.8,0.6-5,1.1-6.7c0.5-1.7,1.6-2.6,3.2-2.6
		c0.4,0,0.9,0.3,1.3,1c0.5,0.7,0.9,1.5,1.3,2.4c0.4,0.9,0.8,1.8,1,2.7c0.3,0.9,0.4,1.6,0.5,2.1c0.1,0.5,0.2,1.5,0.3,3s0.3,3.2,0.4,5
		c0.1,1.8,0.3,3.6,0.4,5.3c0.1,1.7,0.2,3.1,0.3,4c0.3,2.8,0.7,5.9,1.2,9.4c0.5,3.5,1.1,6.7,1.7,9.8c0.6,3,1.1,5.6,1.7,7.7
		c0.5,2.1,0.9,3.1,1.1,3.1c0.3,0,0.8-0.1,1.3-0.3c0.5-0.2,1.1-0.3,1.6-0.3c0.7,0,1,0.3,1,1c0,0.7-0.2,1.2-0.5,1.7
		c-0.3,0.4-0.7,0.8-1.1,1.1c-0.4,0.3-0.7,0.6-1,0.9c-0.3,0.3-0.4,0.6-0.4,0.9c0,0.7,0.4,2.4,1.1,5.2l2,7.5c0.2,0.7,0.5,1.8,1.1,3.4
		c0.6,1.6,1.2,3.3,1.8,5c0.6,1.7,1.2,3.3,1.7,4.8C312.3,115.8,312.6,116.7,312.6,117.1z M284.4,88c0.5,0,1.4-0.1,2.8-0.4
		c1.4-0.3,2.8-0.7,4.2-1.1c1.4-0.4,2.7-0.8,3.8-1.3c1.1-0.4,1.7-0.8,1.7-1c0-0.3-0.1-0.9-0.4-2c-0.3-1.1-0.6-2.4-1-4.1
		c-0.4-1.7-0.8-3.5-1.2-5.7c-0.4-2.1-0.8-4.4-1.1-6.7c-0.2-1.5-0.4-3.6-0.6-6.2c-0.3-2.6-0.5-5.2-0.8-7.8c-0.3-2.6-0.6-5.7-0.9-9.5
		c-0.5,2.5-0.9,4.4-1.2,5.9c-0.3,1.5-0.6,2.9-0.8,4.2c-0.2,1.3-0.3,2.1-0.3,2.2v3.6c0,0.2-0.1,0.9-0.3,2.2c-0.2,1.3-0.5,3-0.8,5
		c-0.3,2-0.7,4.1-1.1,6.5c-0.4,2.3-0.7,4.6-1.1,6.7c-0.3,2.1-0.6,4-0.8,5.7c-0.2,1.7-0.3,2.8-0.3,3.4C284,87.8,284.1,88,284.4,88z"
		/>
	<path class="st2" d="M372.4,81.8c0,1.7-0.1,3.3-0.3,4.8c-0.2,1.5-0.7,3.1-1.4,4.6c-0.7,1.6-1.7,3.2-3,5c-1.3,1.8-2.9,3.8-5,6.1
		c-2.5,2.7-5.3,5.1-8.6,7.2c-3.3,2.1-7,3.2-11,3.2c-2.5,0-5.1-0.4-7.6-1.3c-2.5-0.8-4.7-2.1-6.6-3.8c-1.9-1.7-3.5-3.8-4.6-6.4
		c-1.2-2.5-1.8-5.5-1.8-8.9c0-5.4,1-11.1,3-17.1c2-6,4.9-12.4,8.5-19.2c2.4-4.5,4.6-8.4,6.6-11.9c2-3.4,4-6.3,6-8.6
		c1.9-2.3,3.9-4.1,5.8-5.3c1.9-1.2,4-1.8,6.2-1.8c1.7,0,3.2,0.3,4.4,1c1.2,0.6,1.8,1.9,1.8,3.7c0,0.6-0.1,1.1-0.4,1.6
		c-0.3,0.5-0.6,0.7-1.1,0.7c-0.7,0-1.2-0.2-1.5-0.6c-0.3-0.4-1.1-0.6-2.5-0.6c-2.3,0-4.5,1.1-6.7,3.2c-2.2,2.1-4.3,4.6-6.2,7.3
		c-1.9,2.8-3.6,5.5-5,8.2c-1.4,2.7-2.4,4.7-3,6c-1,2.1-2.1,4.6-3.4,7.5c-1.2,2.9-2.4,5.8-3.5,8.9c-1.1,3-2,6-2.8,8.8
		c-0.8,2.8-1.1,5.2-1.1,7c0,2.4,0.4,4.5,1.2,6.3c0.8,1.8,1.9,3.4,3.2,4.6c1.4,1.3,2.9,2.2,4.8,2.9c1.8,0.6,3.7,1,5.8,1
		c2.8,0,5.7-0.7,8.6-2c2.9-1.4,5.5-3.1,7.9-5.3c2.3-2.2,4.2-4.7,5.7-7.6c1.5-2.9,2.2-5.8,2.2-8.8c0-3-0.8-5.4-2.3-7.4
		c-1.5-1.9-3.2-2.9-5.1-2.9c-1.2,0-2,0.2-2.5,0.6c-0.5,0.4-0.9,0.9-1.3,1.5c-0.6,0.9-1.1,1.7-1.7,2.3c-0.5,0.6-1.4,1.1-2.7,1.5
		c-2,0.7-3.6,1.2-4.8,1.5c-1.1,0.3-2,0.5-2.5,0.7l-1,0.3c-0.5,0-1.2-0.4-2.1-1.1c-0.9-0.7-1.3-1.3-1.3-1.7c0-1.5,0.9-3,2.7-4.4
		c1.8-1.4,3.9-2.7,6.2-3.8s4.5-2.1,6.6-2.7c2.1-0.7,3.4-1,3.9-1c2.5,0,4.6,0.5,6.3,1.5c1.7,1,3,2.3,3.9,3.9c1,1.6,1.7,3.4,2.1,5.3
		C372.2,78.1,372.4,80,372.4,81.8z"/>
	<path class="st2" d="M415.8,66.7c0.1,0.2,0.2,0.3,0.3,0.3c0.1,0,0.1,0.1,0.1,0.3c0,0.5-1.1,1.5-3.2,2.9c-2.1,1.4-4.7,3-7.9,4.7
		c-3.1,1.7-6.4,3.5-9.9,5.2c-3.5,1.7-6.6,3.2-9.3,4.3c0,0.2-0.1,0.7-0.3,1.7c-0.2,0.9-0.3,1.5-0.3,1.8v2.4c0,1.9,0.3,3.9,0.9,5.8
		c0.6,1.9,1.5,3.6,2.7,5.1c1.2,1.5,2.7,2.8,4.5,3.7c1.8,0.9,3.9,1.4,6.2,1.4c1,0,2.3-0.2,3.7-0.6c1.5-0.4,2.9-0.9,4.3-1.7
		c1.4-0.7,2.6-1.6,3.7-2.6c1.1-1,1.8-2.2,2-3.4c1,0.1,1.6,0.4,1.8,0.9c0.2,0.5,0.3,0.8,0.3,1c0,2.2-0.5,4.1-1.6,5.7
		c-1.1,1.6-2.4,2.8-3.9,3.8c-1.6,1-3.2,1.7-5,2.2c-1.7,0.5-3.3,0.7-4.6,0.7c-7.3,0-12.6-2-15.9-6.1s-5-9.4-5-16
		c0-0.3,0.1-1.1,0.3-2.3c0.2-1.2,0.3-2,0.3-2.4c0-0.1-0.2-0.2-0.5-0.3c-0.3-0.1-0.7-0.3-1.1-0.4c-0.4-0.2-0.7-0.4-1-0.8
		c-0.3-0.4-0.4-0.9-0.4-1.6c0-0.7,0.3-1.2,0.8-1.7c0.5-0.4,1.1-0.8,1.8-1.1l1.3-0.8c0.8-3.2,1.7-6.3,2.7-9.3c1.1-3,2.4-6,4-9.1
		c-0.7,0-1.4-0.1-2.2-0.3c-0.8-0.2-1.1-0.8-1.1-1.8c0-1.2,0.7-2.5,2.1-3.9c1.4-1.4,3-2.8,4.8-4.1c1.8-1.3,3.6-2.3,5.4-3.2
		c1.8-0.9,3-1.3,3.8-1.3c0.3,0,0.6,0.1,0.7,0.2s0.4,0.2,0.7,0.2c0.7,0,1.5-0.1,2.6-0.4c1.1-0.3,2.2-0.5,3.4-0.9
		c1.2-0.3,2.3-0.6,3.4-0.9c1.1-0.3,1.9-0.4,2.6-0.4c0.8,0,1.3,0.3,1.7,0.8c0.4,0.5,0.6,1.1,0.6,1.7c0,0.7-0.4,1.2-1.3,1.5
		c-0.8,0.3-1.6,0.5-2.3,0.7c-2.4,0.4-4.8,1.2-7.4,2.2c-2.6,1.1-5,2.2-7.2,3.5c-0.8,0.9-1.9,2.3-3,4c-1.2,1.7-2.3,3.7-3.4,5.9
		c-1.1,2.2-2.1,4.5-3,6.9c-0.9,2.4-1.5,4.6-1.7,6.7l2.2-1c6.5-3.1,11.8-5.6,15.9-7.4c4.1-1.8,7.3-2.7,9.6-2.7
		C415.1,66.1,415.5,66.3,415.8,66.7z"/>
	<path class="st2" d="M198.3,198.2c0.1,0.4,0.3,0.8,0.4,1.2c0.1,0.4,0.3,0.7,0.4,1.2c0.1,0.4,0.2,0.8,0.2,1.2c0,0.5-0.2,0.9-0.5,1.2
		c-0.4,0.3-0.8,0.6-1.2,0.8c-0.5,0.2-0.9,0.4-1.3,0.4c-0.4,0.1-0.7,0.1-0.7,0.1c-0.4,0-1.2-1.3-2.3-3.9c-1.1-2.6-2.4-6.2-3.7-10.9
		c-1.3-4.7-2.6-10.2-4-16.6c-1.3-6.4-2.4-13.5-3.3-21.2c-0.1,1.6-0.4,3.5-0.8,5.7c-0.4,2.2-1,4.2-1.7,6.1c-0.8,1.9-1.8,3.5-3,4.8
		c-1.2,1.3-2.8,2-4.7,2c-1.3,0-2.9-0.7-4.6-2.1c-1.7-1.4-3.3-3.1-4.9-5c-1.6-1.9-3-3.9-4.3-5.9c-1.3-2-2.3-3.7-2.9-4.9
		c0.3,3.1,0.8,6.9,1.4,11.2c0.7,4.4,1.7,9,3.1,13.9c0.1,0.5,0.3,0.9,0.5,1.1c0.2,0.2,0.4,0.5,0.5,0.8c0.2,0.3,0.3,0.6,0.4,0.9
		c0.1,0.3,0.2,0.8,0.2,1.4c0,0.9-0.4,1.6-1.1,2c-0.7,0.4-1.4,0.6-2,0.6c-0.4,0-0.8-0.5-1.4-1.6c-0.6-1.1-1.2-2.5-1.8-4.3
		c-0.6-1.8-1.3-3.7-1.9-5.9c-0.6-2.2-1.2-4.3-1.7-6.4c-0.5-2.1-1-4.1-1.3-6c-0.4-1.9-0.5-3.4-0.5-4.5c0-1.8,0.1-3.1,0.3-3.8
		c0.2-0.7,0.4-1.2,0.8-1.6v-6.5c0-1,0.3-1.7,0.8-2.3c0.5-0.5,1.2-0.8,2.1-0.8c0.7,0,1.5,0.6,2.4,1.8c0.9,1.2,1.9,2.7,3,4.6
		c1.1,1.8,2.2,3.8,3.4,5.9c1.2,2.1,2.4,4.1,3.6,5.9c1.2,1.8,2.3,3.4,3.4,4.6c1.1,1.2,2.1,1.8,3.1,1.8c0.9,0,1.8-0.9,2.6-2.6
		c0.8-1.7,1.6-4,2.4-6.8c0.7-2.8,1.4-6,2-9.6c0.6-3.6,1-7.3,1.4-11c0-0.4,0-0.9-0.1-1.4c-0.1-0.5-0.1-1.1-0.1-1.7
		c0-0.8,0.2-1.8,0.6-2.8c0.4-1,1.1-1.5,2.3-1.5c0.6,0,1.1,0.2,1.5,0.5c0.4,0.4,0.7,0.8,0.8,1.3c0.1,0.5,0.2,1.1,0.3,1.6
		c0,0.5,0.1,1,0.1,1.3c0,0.6-0.1,1.5-0.2,2.8c-0.1,1.3-0.2,3.3-0.2,6c0,2.3,0.2,5,0.5,8.1c0.4,3.1,0.8,6.3,1.4,9.8
		c0.6,3.4,1.3,7,2.1,10.6c0.8,3.6,1.7,7.2,2.7,10.7c1,3.5,1.9,6.7,2.9,9.8C196.3,193.2,197.3,195.9,198.3,198.2z"/>
	<path class="st2" d="M218.8,169.6c0,1.6-0.2,3-0.6,4.5c-0.4,1.4-1,2.6-1.7,3.7c-0.7,1.1-1.5,1.9-2.5,2.5c-1,0.6-2,0.9-3.1,0.9
		c-2,0-3.5-0.6-4.7-1.7c-1.1-1.1-2-2.4-2.6-3.9c-0.6-1.5-1-3-1.2-4.5c-0.2-1.5-0.3-2.7-0.3-3.4c0-1.3,0.2-2.7,0.6-4.3
		c0.4-1.6,0.9-3.1,1.6-4.4c0.7-1.3,1.4-2.5,2.3-3.4c0.8-0.9,1.7-1.4,2.6-1.4c0.2,0,0.5,0.1,1,0.2c0.5,0.1,0.9,0.4,1.4,0.6
		c0.5,0.3,0.9,0.6,1.3,1.1c0.4,0.4,0.7,0.9,0.8,1.5c0.8,0.1,1.6,0.4,2.3,0.8c0.8,0.5,1.2,0.9,1.3,1.2c0.6,1.8,0.9,3.7,1.1,5.5
		C218.7,166.9,218.8,168.4,218.8,169.6z M214,167.7c0-1.1-0.1-2.2-0.3-3.3s-0.6-2.3-1.3-3.6c-0.1,0.1-0.3,0.1-0.5,0.1
		c-0.3,0-0.5,0-0.7-0.1c-0.2-0.1-0.3-0.1-0.5-0.1c-0.8,0-1.5,0.2-2,0.7c-0.5,0.5-0.9,1.1-1.1,1.8c-0.2,0.7-0.4,1.5-0.5,2.4
		c-0.1,0.8-0.1,1.7-0.1,2.4c0,0.8,0,1.6,0.1,2.6c0.1,1,0.2,1.9,0.5,2.7c0.2,0.8,0.6,1.6,1,2.2c0.4,0.6,1,0.9,1.7,0.9
		c0.7,0,1.3-0.4,1.8-1.1c0.5-0.7,0.9-1.6,1.2-2.6c0.3-1,0.5-2,0.6-2.9C213.9,168.8,214,168.1,214,167.7z"/>
	<path class="st2" d="M251.2,178.5c0,1.2-0.4,2.2-1.2,3.1c-0.8,0.9-1.8,1.6-3.1,2.2c-1.2,0.6-2.6,1.1-4.1,1.4
		c-1.5,0.4-2.9,0.6-4.2,0.8c-1.3,0.2-2.5,0.3-3.6,0.3c-1,0-1.7,0.1-2,0.1c-1.6,0-2.8-0.2-3.6-0.7c-0.8-0.5-1.3-1.4-1.3-2.6
		c0-0.4,0-0.8,0.1-1.1c0.1-0.3,0.4-0.5,0.8-0.5c0.2,0,0.6,0.1,1.1,0.2c0.5,0.1,0.9,0.2,1.2,0.2c0.3,0,1.2-0.1,2.7-0.2
		c1.5-0.1,3.1-0.3,4.9-0.6c1.7-0.3,3.3-0.7,4.7-1.2s2.1-1.2,2.1-2.1c0-0.1-0.7-0.6-2.2-1.3c-1.4-0.7-3.6-2-6.5-3.8
		c-2.3-1.4-3.9-2.8-4.8-4.3c-0.9-1.4-1.4-3.4-1.4-5.9c0-1.6,0.3-2.8,1-3.8c0.7-1,1.6-1.8,2.8-2.3c1.2-0.6,2.5-1,4-1.2
		c1.5-0.2,3.1-0.4,4.8-0.4c0.1,0,0.6,0.1,1.3,0.2c0.7,0.1,1.5,0.4,2.4,0.7c0.8,0.3,1.6,0.7,2.3,1.2c0.7,0.5,1,1,1,1.5
		c0,0.1-0.1,0.4-0.4,0.6c-0.2,0.3-0.7,0.8-1.2,1.6c-0.2-0.1-0.6-0.2-1.1-0.3c-0.5-0.1-1.1-0.3-1.8-0.5c-0.7-0.2-1.4-0.3-2.1-0.4
		c-0.7-0.1-1.3-0.2-1.7-0.2c-1.8,0-3.3,0.3-4.5,1c-1.1,0.7-1.7,2-1.7,3.9c0,0.9,0.4,1.8,1.1,2.5c0.7,0.8,1.7,1.5,2.8,2.2
		c1.1,0.7,2.3,1.3,3.7,2c1.3,0.7,2.5,1.4,3.7,2.2c1.1,0.8,2.1,1.6,2.8,2.5C250.8,176.4,251.2,177.4,251.2,178.5z"/>
	<path class="st2" d="M293.1,174.9c0,0.6-0.4,1.3-1.3,2c-0.8,0.7-1.8,1.4-3,2c-1.1,0.6-2.3,1.1-3.4,1.5s-2,0.6-2.6,0.6
		c-0.6,0-1.3-0.2-2.1-0.5c-0.7-0.4-1.4-0.8-2.1-1.3c-0.7-0.5-1.3-1-1.7-1.4c-0.5-0.4-0.8-0.7-1-0.8c-0.2,0.2-0.5,0.6-1,1.3
		c-0.4,0.6-0.9,1.3-1.5,2.1c-0.6,0.7-1.2,1.4-1.9,2c-0.7,0.6-1.4,0.8-2.1,0.8c-1.8,0-3.4-1-4.8-3c-1.3-2-2.5-4.2-3.3-6.8
		c-0.9-2.5-1.6-5-2-7.4c-0.5-2.4-0.7-4-0.7-4.8c0-0.5,0.3-0.9,0.8-1.2c0.5-0.3,0.9-0.5,1.2-0.5c1,0,1.7,0.3,2,1
		c0.4,0.7,0.5,1.4,0.5,2.2c0,0.6,0.2,1.8,0.6,3.4c0.4,1.6,0.9,3.3,1.4,5c0.6,1.7,1.2,3.2,1.8,4.5c0.6,1.3,1.2,2,1.7,2
		c0.9,0,1.7-0.6,2.4-1.7c0.7-1.2,1.2-2.5,1.6-4c0.4-1.5,0.7-3,1-4.3s0.3-2.3,0.3-2.7c0-0.1,0-0.3,0.1-0.7c0-0.4,0.1-0.8,0.2-1.2
		c0.1-0.4,0.1-0.8,0.2-1.2c0-0.4,0.1-0.6,0.1-0.7c0-0.5-0.1-0.8-0.3-1c-0.2-0.2-0.3-0.5-0.3-1.1c0-0.4,0.2-0.8,0.6-1.2
		c0.4-0.4,1.3-0.6,2.8-0.6c0.6,0,1,0.2,1.3,0.5c0.3,0.3,0.5,0.7,0.7,1.1c0.1,0.4,0.2,0.8,0.3,1.2c0,0.4,0.1,0.7,0.1,0.8
		c0,0.1,0,0.6-0.1,1.5c-0.1,0.9-0.1,1.9-0.2,3c0,1.1-0.1,2.1-0.2,3.1c-0.1,1-0.1,1.6-0.1,1.8c0,0.2,0.1,0.6,0.3,1.3
		c0.2,0.6,0.5,1.3,0.8,2c0.3,0.7,0.7,1.3,1.1,1.8s0.9,0.8,1.4,0.8c0.8,0,1.6-0.1,2.4-0.4c0.7-0.2,1.4-0.5,2.1-0.8
		c0.7-0.3,1.3-0.6,1.9-0.8c0.6-0.2,1.1-0.4,1.6-0.4c0.6,0,1.2,0.1,1.7,0.4C292.8,174.1,293.1,174.5,293.1,174.9z"/>
	<path class="st2" d="M320.2,160.2c0,0.5-0.2,0.9-0.6,1.2c-0.4,0.3-0.9,0.6-1.5,0.8c-0.6,0.2-1.1,0.4-1.7,0.5
		c-0.6,0.1-1,0.2-1.4,0.2c-1.1,0-1.8-0.1-2.1-0.2c-0.4-0.1-0.6-0.2-0.8-0.2c-1.8,0-3.2,0.1-4.2,0.4c-1.1,0.3-1.9,0.7-2.5,1.4
		c-0.6,0.6-1,1.4-1.2,2.4c-0.2,1-0.3,2.1-0.3,3.4c0,2.3,0.1,4.1,0.3,5.4c0.2,1.3,0.4,2.4,0.5,3.3c0.2,0.8,0.4,1.5,0.5,2
		c0.2,0.5,0.3,0.9,0.3,1.3c0,0.6-0.3,1.2-0.9,1.8c-0.6,0.6-1.1,1-1.6,1c-0.8,0-1.6-0.8-2.3-2.3c-0.7-1.5-1.2-3.3-1.7-5.4
		c-0.5-2.1-0.8-4.2-1.1-6.2c-0.3-2-0.4-3.6-0.4-4.7c0-1.2,0.1-2.3,0.3-3.4c0.2-1.1,0.5-2,0.8-2.9c0.4-0.8,0.7-1.5,1.2-2
		c0.4-0.5,0.8-0.7,1.3-0.7c0.4,0,0.6,0.1,0.8,0.4c0.2,0.2,0.4,0.5,0.5,0.8c0.1,0.3,0.3,0.6,0.5,0.8c0.2,0.2,0.4,0.4,0.7,0.4
		c0.6,0,1.7-0.3,3.1-1c1.4-0.6,3.1-1,5.2-1c1.9,0,3.3,0.1,4.3,0.2s1.9,0.3,2.8,0.7c0.2,0.1,0.5,0.2,0.8,0.5
		C320,159.3,320.2,159.7,320.2,160.2z"/>
	<path class="st2" d="M332.8,143.7c0,0.1-0.2,0.4-0.7,0.8c-0.5,0.4-1.1,0.9-1.7,1.3c-0.7,0.5-1.4,0.9-2.1,1.2
		c-0.7,0.4-1.3,0.5-1.7,0.5c-0.3,0-0.7,0-1.1-0.1c-0.5,0-0.9-0.2-1.4-0.4c-0.5-0.2-0.9-0.5-1.2-0.9c-0.4-0.4-0.5-0.9-0.5-1.5
		c0-1,0.4-1.9,1.1-2.8c0.7-0.9,1.6-1.3,2.8-1.3c0.2,0,0.7,0.1,1.4,0.3c0.7,0.2,1.5,0.4,2.3,0.7c0.8,0.3,1.5,0.6,2.1,1
		C332.5,142.9,332.8,143.3,332.8,143.7z M336.3,183.4c0,0.5-0.4,0.9-1.1,1.3c-0.7,0.4-1.3,0.5-1.6,0.5c-0.7,0-1.3-0.5-1.9-1.4
		c-0.6-0.9-1.1-2-1.5-3.2c-0.4-1.2-0.8-2.3-1.1-3.4c-0.3-1.1-0.5-1.9-0.6-2.3c-0.2-0.7-0.5-1.6-0.8-2.5c-0.4-1-0.7-1.9-1-2.9
		c-0.3-0.9-0.6-1.7-0.8-2.4c-0.2-0.7-0.3-1.1-0.3-1.2c0-1,0.2-1.9,0.6-2.8c0.4-0.8,0.9-1.3,1.4-1.3c0.6,0,1.3,0.5,2,1.5
		c0.7,1,1.4,2.2,2.1,3.8c0.7,1.5,1.3,3.2,1.9,5c0.6,1.8,1.1,3.5,1.5,5.1c0.4,1.6,0.8,3,1,4.1C336.2,182.5,336.3,183.2,336.3,183.4z"
		/>
	<path class="st2" d="M372.7,179.4c0,0.4-0.1,0.8-0.4,1.3c-0.3,0.4-0.6,0.8-1,1.2c-0.4,0.4-0.8,0.7-1.3,0.9
		c-0.5,0.2-0.9,0.4-1.2,0.4c-1.2,0-2.7-0.3-4.6-0.8c-1.9-0.5-3.4-1.4-4.5-2.5c-1.2-1.2-2.3-2.6-3.2-4.3c-0.9-1.7-1.9-4.1-3.1-7.4
		c-0.8,3.1-1.7,6.2-2.7,9.2c-1,3-2.7,5.8-4.9,8.4c-0.1,0.1-0.4,0.2-0.6,0.2c-0.5,0-1-0.2-1.6-0.7c-0.6-0.5-0.8-1-0.8-1.5
		c0-0.5-0.1-1.6-0.2-3.4c-0.1-1.8-0.2-3.8-0.4-6c-0.1-2.2-0.3-4.5-0.4-6.8c-0.1-2.3-0.2-4.2-0.2-5.7c0-0.7,0-1.6,0.1-2.8
		c0.1-1.2,0.3-2.2,0.6-3c0.1-0.1,0.3-0.4,0.8-0.8c0.5-0.4,1-0.6,1.5-0.6c0.5,0,0.8,0.3,0.8,1c0.1,0.6,0.1,1.3,0.1,2.1v16.7
		c0,0.4,0.1,0.8,0.2,1.5c0.1,0.6,0.3,1.1,0.5,1.4c0.8-1.7,1.5-3.7,2.2-6c0.7-2.3,1.3-4.5,2-6.6c0.6-2.1,1.3-3.9,1.9-5.3
		c0.6-1.4,1.3-2.2,1.9-2.2c0.7,0,1.3,0.1,1.7,0.4c0.4,0.3,0.8,0.8,1.1,1.7c0.4,2.1,0.6,3.9,0.8,5.5c0.2,1.6,0.5,3,0.8,4.3
		c0.3,1.3,0.8,2.5,1.4,3.6c0.6,1.1,1.4,2.1,2.5,3c1,0.9,2.1,1.6,3.3,2c1.2,0.4,2.3,0.6,3.2,0.6c0.4,0,0.9-0.1,1.4-0.3
		c0.5-0.2,0.8-0.3,1.1-0.3c0.3,0,0.5,0.2,0.8,0.7C372.5,179,372.7,179.3,372.7,179.4z"/>
	<path class="st2" d="M389.2,202.5c0,1-0.3,1.9-0.8,2.7c-0.6,0.8-1.2,1.5-2,2.1c-0.8,0.6-1.6,1-2.4,1.3s-1.6,0.5-2.1,0.5
		c-1.7,0-3.7-0.3-5.9-0.8c-2.2-0.5-4.3-1.4-6.3-2.5c-1.9-1.2-3.6-2.6-4.9-4.5c-1.3-1.8-2-4-2-6.6c0-0.3,0.1-0.5,0.2-0.8
		c0.1-0.2,0.4-0.4,0.7-0.4c0.5,0,1.1,0.5,1.9,1.6c0.7,1.1,1.7,2.3,3,3.7c1.3,1.3,2.9,2.6,4.9,3.7c2,1.1,4.5,1.6,7.6,1.6
		c1,0,1.7-0.1,2.1-0.3c0.4-0.2,0.6-0.9,0.6-2.1c0-1.1-0.2-2.4-0.5-3.7c-0.3-1.3-0.7-2.7-1.1-4c-0.4-1.3-0.8-2.6-1.2-3.8
		c-0.4-1.2-0.7-2.2-0.9-3.1c-0.1-0.2-0.3-1.1-0.7-2.7c-0.4-1.6-0.8-3.4-1.2-5.5c-0.4-2.1-0.8-4.1-1.2-6.1c-0.4-2-0.5-3.4-0.5-4.3
		c0-0.5,0.1-1.2,0.2-2c0.1-0.8,0.6-1.3,1.4-1.3c0.4,0,0.7,0.4,1.2,1.3c0.4,0.9,0.9,2,1.3,3.3c0.5,1.3,0.9,2.7,1.3,4.3
		c0.4,1.6,0.7,3,1.1,4.4c0.3,1.4,0.6,2.6,0.8,3.6c0.2,1,0.4,1.6,0.4,1.8c0.1,0.6,0.5,1.6,1.1,3.1c0.6,1.5,1.1,3.2,1.7,5
		c0.6,1.9,1.1,3.8,1.6,5.7C388.9,199.5,389.2,201.1,389.2,202.5z M381.2,144.2c0,0.1-0.2,0.4-0.6,0.8c-0.4,0.4-0.8,0.9-1.4,1.3
		c-0.5,0.5-1.1,0.9-1.6,1.2c-0.5,0.4-0.9,0.5-1.2,0.5c-1.1,0-2.2-0.2-3.2-0.7c-1-0.5-1.5-1.2-1.5-2c0-0.4,0.1-0.8,0.2-1.3
		c0.1-0.5,0.3-1,0.5-1.4c0.2-0.5,0.6-0.8,1-1.2s1-0.5,1.6-0.5c0.4,0,1,0.1,1.7,0.3c0.7,0.2,1.4,0.4,2.1,0.7c0.7,0.3,1.3,0.7,1.7,1.1
		C381,143.4,381.2,143.8,381.2,144.2z"/>
	<path class="st2" d="M409.3,169.6c0,1.6-0.2,3-0.6,4.5c-0.4,1.4-1,2.6-1.7,3.7c-0.7,1.1-1.5,1.9-2.5,2.5c-1,0.6-2,0.9-3.1,0.9
		c-2,0-3.5-0.6-4.7-1.7c-1.1-1.1-2-2.4-2.6-3.9c-0.6-1.5-1-3-1.2-4.5c-0.2-1.5-0.3-2.7-0.3-3.4c0-1.3,0.2-2.7,0.6-4.3
		c0.4-1.6,0.9-3.1,1.6-4.4c0.7-1.3,1.4-2.5,2.3-3.4c0.8-0.9,1.7-1.4,2.6-1.4c0.2,0,0.5,0.1,1,0.2c0.5,0.1,0.9,0.4,1.4,0.6
		c0.5,0.3,0.9,0.6,1.3,1.1c0.4,0.4,0.7,0.9,0.8,1.5c0.8,0.1,1.6,0.4,2.3,0.8c0.8,0.5,1.2,0.9,1.3,1.2c0.6,1.8,0.9,3.7,1.1,5.5
		C409.2,166.9,409.3,168.4,409.3,169.6z M404.6,167.7c0-1.1-0.1-2.2-0.3-3.3s-0.6-2.3-1.3-3.6c-0.1,0.1-0.3,0.1-0.5,0.1
		c-0.3,0-0.5,0-0.7-0.1c-0.2-0.1-0.3-0.1-0.5-0.1c-0.8,0-1.5,0.2-2,0.7c-0.5,0.5-0.9,1.1-1.1,1.8c-0.2,0.7-0.4,1.5-0.5,2.4
		c-0.1,0.8-0.1,1.7-0.1,2.4c0,0.8,0,1.6,0.1,2.6c0.1,1,0.2,1.9,0.5,2.7c0.2,0.8,0.6,1.6,1,2.2c0.4,0.6,1,0.9,1.7,0.9
		c0.7,0,1.3-0.4,1.8-1.1c0.5-0.7,0.9-1.6,1.2-2.6c0.3-1,0.5-2,0.6-2.9C404.5,168.8,404.6,168.1,404.6,167.7z"/>
	<path class="st2" d="M451.8,172.9c0.4,0.4,0.5,0.6,0.5,0.6c0,0.1-0.2,0.6-0.6,1.3c-0.4,0.7-0.9,1.4-1.5,2.2
		c-0.6,0.8-1.3,1.5-2.1,2.1c-0.7,0.6-1.5,0.9-2.2,0.9c-1.5,0-2.7-0.3-3.6-0.9c-0.9-0.6-1.7-1.4-2.3-2.3c-0.6-0.9-1.1-1.9-1.4-3
		c-0.3-1.1-0.6-2.1-0.8-3.1c-0.1-0.5-0.3-0.7-0.4-0.7c-0.2,0-0.6,0.8-1.3,2.3c-0.6,1.5-1.3,3.2-2.1,5c-0.7,1.8-1.4,3.5-2.1,5
		c-0.7,1.5-1.1,2.3-1.3,2.3c-1.3,0-2.4-0.5-3.2-1.6c-0.9-1.1-1.6-2.4-2.1-3.8c-0.5-1.4-0.9-2.9-1.2-4.5c-0.3-1.5-0.5-2.7-0.5-3.6
		c-0.2-1.9-0.7-5.1-1.4-9.5c-0.7-4.5-1.3-9.9-1.8-16.2c-0.1-1.3-0.3-2.6-0.5-3.7c-0.2-1.1-0.4-2.3-0.6-3.7c-0.2-1.3-0.4-2.9-0.5-4.6
		c-0.1-1.7-0.2-3.8-0.2-6.3c0-0.1,0-0.6,0.1-1.4c0.1-0.8,0.2-1.6,0.3-2.5c0.1-0.9,0.4-1.7,0.7-2.4c0.3-0.7,0.7-1.1,1.1-1.1
		c0.5,0,1,0.3,1.4,0.9c0.4,0.6,0.8,1.3,1.1,2.1c0.3,0.8,0.5,1.5,0.7,2.2c0.1,0.7,0.2,1.2,0.2,1.5c0,1.1-0.1,2.1-0.2,3
		c-0.1,0.9-0.2,1.8-0.2,2.5c0,1.1,0.1,2.4,0.3,4c0.2,1.6,0.4,3.3,0.7,5c0.3,1.7,0.5,3.3,0.7,4.9c0.2,1.6,0.4,2.9,0.5,3.9
		c0,0.1,0.1,0.6,0.2,1.5c0.1,0.9,0.3,2.1,0.5,3.4c0.2,1.4,0.4,2.9,0.5,4.5c0.2,1.6,0.4,3.1,0.6,4.7c0.2,1.5,0.4,2.9,0.6,4
		c0.2,1.2,0.3,2,0.4,2.5c0,0.2,0.1,0.5,0.2,0.9c0.1,0.4,0.2,0.8,0.3,1.3c0.1,0.5,0.2,1,0.4,1.4c0.1,0.4,0.3,0.7,0.5,1
		c0.4-0.8,1-2.2,1.6-3.9c0.7-1.8,1.4-3.6,2.1-5.4c0.7-1.8,1.4-3.4,2.1-4.8c0.7-1.4,1.3-2.1,1.7-2.1c0.6,0,1,0.1,1.4,0.3
		c0.4,0.2,0.8,0.4,1.4,0.5c0.7,0.3,1.1,0.7,1.1,1.1c0,0.5,0.1,1,0.2,1.6c0.1,0.8,0.4,2,0.7,3.3c0.3,1.4,0.7,2.7,1.1,4
		c0.4,1.3,0.9,2.4,1.5,3.3c0.6,0.9,1.1,1.4,1.7,1.4c0.3,0,0.7-0.4,1.2-1.1c0.5-0.7,1.2-1.1,2-1.2c0.1,0,0.4,0.1,0.7,0.3
		C451.1,172.4,451.5,172.6,451.8,172.9z"/>
	<path class="st2" d="M488.3,179.4c0,0.4-0.1,0.8-0.4,1.3c-0.3,0.4-0.6,0.8-1,1.2c-0.4,0.4-0.8,0.7-1.3,0.9
		c-0.5,0.2-0.9,0.4-1.2,0.4c-1.2,0-2.7-0.3-4.6-0.8c-1.9-0.5-3.4-1.4-4.5-2.5c-1.2-1.2-2.3-2.6-3.2-4.3c-0.9-1.7-1.9-4.1-3.1-7.4
		c-0.8,3.1-1.7,6.2-2.7,9.2c-1,3-2.7,5.8-4.9,8.4c-0.1,0.1-0.4,0.2-0.6,0.2c-0.5,0-1-0.2-1.6-0.7c-0.6-0.5-0.8-1-0.8-1.5
		c0-0.5-0.1-1.6-0.2-3.4c-0.1-1.8-0.2-3.8-0.4-6c-0.1-2.2-0.3-4.5-0.4-6.8c-0.1-2.3-0.2-4.2-0.2-5.7c0-0.7,0-1.6,0.1-2.8
		c0.1-1.2,0.3-2.2,0.6-3c0.1-0.1,0.3-0.4,0.8-0.8c0.5-0.4,1-0.6,1.5-0.6c0.5,0,0.8,0.3,0.8,1c0.1,0.6,0.1,1.3,0.1,2.1v16.7
		c0,0.4,0.1,0.8,0.2,1.5c0.1,0.6,0.3,1.1,0.5,1.4c0.8-1.7,1.5-3.7,2.2-6c0.7-2.3,1.3-4.5,2-6.6c0.6-2.1,1.3-3.9,1.9-5.3
		c0.6-1.4,1.3-2.2,1.9-2.2c0.7,0,1.3,0.1,1.7,0.4c0.4,0.3,0.8,0.8,1.1,1.7c0.4,2.1,0.6,3.9,0.8,5.5c0.2,1.6,0.5,3,0.8,4.3
		c0.3,1.3,0.8,2.5,1.4,3.6c0.6,1.1,1.4,2.1,2.5,3c1,0.9,2.1,1.6,3.3,2c1.2,0.4,2.3,0.6,3.2,0.6c0.4,0,0.9-0.1,1.4-0.3
		c0.5-0.2,0.8-0.3,1.1-0.3c0.3,0,0.5,0.2,0.8,0.7C488.2,179,488.3,179.3,488.3,179.4z"/>
</g>
</svg>
